<svg width="327" height="24" viewBox="0 0 327 24" fill="none" xmlns="http://www.w3.org/2000/svg">
<rect y="11.5" width="147.5" height="1" fill="#CFCBCB"/>
<path d="M156 12.0104C156 7.83159 159.35 4.5 163.499 4.5C167.648 4.5 171 7.83174 171 12.0104C171 16.1874 167.65 19.5 163.499 19.5C159.348 19.5 156 16.1875 156 12.0104ZM161.917 11.9991C161.917 12.8733 162.622 13.5883 163.499 13.5883C164.376 13.5883 165.081 12.8733 165.081 11.9991C165.081 11.1248 164.376 10.4098 163.499 10.4098C162.622 10.4098 161.917 11.1248 161.917 11.9991Z" stroke="#CFCBCB"/>
<rect x="179.5" y="11.5" width="147.5" height="1" fill="#CFCBCB"/>
</svg>
