<svg width="24" height="24" viewBox="0 0 24 24" fill="none" xmlns="http://www.w3.org/2000/svg">
<path fill-rule="evenodd" clip-rule="evenodd" d="M16.75 3.25V1.25H15.25V3.25H8.75V1.25H7.25V3.25H5C3.48122 3.25 2.25 4.48122 2.25 6V20C2.25 21.5188 3.48122 22.75 5 22.75H19C20.5188 22.75 21.75 21.5188 21.75 20V6C21.75 4.48122 20.5188 3.25 19 3.25H16.75ZM20.25 9.25V6C20.25 5.30964 19.6904 4.75 19 4.75H16.75V6.75H15.25V4.75H8.75V6.75H7.25V4.75H5C4.30964 4.75 3.75 5.30964 3.75 6V9.25H20.25ZM3.75 10.75H20.25V20C20.25 20.6904 19.6904 21.25 19 21.25H5C4.30964 21.25 3.75 20.6904 3.75 20V10.75Z" fill="#6D6E6F"/>
</svg>
