<svg width="32" height="32" viewBox="0 0 32 32" fill="none" xmlns="http://www.w3.org/2000/svg">
<path fill-rule="evenodd" clip-rule="evenodd" d="M16 3.66666C9.18851 3.66666 3.66669 9.18848 3.66669 16C3.66669 22.8115 9.18851 28.3333 16 28.3333C22.8115 28.3333 28.3334 22.8115 28.3334 16C28.3334 9.18848 22.8115 3.66666 16 3.66666ZM1.66669 16C1.66669 8.08391 8.08394 1.66666 16 1.66666C23.9161 1.66666 30.3334 8.08391 30.3334 16C30.3334 23.9161 23.9161 30.3333 16 30.3333C8.08394 30.3333 1.66669 23.9161 1.66669 16Z" fill="#6D6E6F"/>
<path d="M21.3334 21.3333C21.3334 21.3333 19.3334 18.6667 16 18.6667C12.6667 18.6667 10.6667 21.3333 10.6667 21.3333" stroke="#6D6E6F" stroke-width="2" stroke-linecap="round" stroke-linejoin="round"/>
<path fill-rule="evenodd" clip-rule="evenodd" d="M10.6667 12C10.6667 11.2636 11.2636 10.6667 12 10.6667H12.0134C12.7497 10.6667 13.3467 11.2636 13.3467 12C13.3467 12.7364 12.7497 13.3333 12.0134 13.3333H12C11.2636 13.3333 10.6667 12.7364 10.6667 12Z" fill="#6D6E6F"/>
<path fill-rule="evenodd" clip-rule="evenodd" d="M18.6667 12C18.6667 11.2636 19.2636 10.6667 20 10.6667H20.0134C20.7497 10.6667 21.3467 11.2636 21.3467 12C21.3467 12.7364 20.7497 13.3333 20.0134 13.3333H20C19.2636 13.3333 18.6667 12.7364 18.6667 12Z" fill="#6D6E6F"/>
</svg>
