<svg width="32" height="32" viewBox="0 0 32 32" fill="none" xmlns="http://www.w3.org/2000/svg">
<path fill-rule="evenodd" clip-rule="evenodd" d="M16 3.66666C9.18851 3.66666 3.66669 9.18848 3.66669 16C3.66669 22.8115 9.18851 28.3333 16 28.3333C22.8115 28.3333 28.3334 22.8115 28.3334 16C28.3334 9.18848 22.8115 3.66666 16 3.66666ZM1.66669 16C1.66669 8.08391 8.08394 1.66666 16 1.66666C23.9161 1.66666 30.3334 8.08391 30.3334 16C30.3334 23.9161 23.9161 30.3333 16 30.3333C8.08394 30.3333 1.66669 23.9161 1.66669 16ZM11 12C11 11.4477 11.4477 11 12 11H12.0134C12.5656 11 13.0134 11.4477 13.0134 12C13.0134 12.5523 12.5656 13 12.0134 13H12C11.4477 13 11 12.5523 11 12ZM19 12C19 11.4477 19.4477 11 20 11H20.0134C20.5656 11 21.0134 11.4477 21.0134 12C21.0134 12.5523 20.5656 13 20.0134 13H20C19.4477 13 19 12.5523 19 12ZM9.66669 20C9.66669 19.4477 10.1144 19 10.6667 19H21.3334C21.8856 19 22.3334 19.4477 22.3334 20C22.3334 20.5523 21.8856 21 21.3334 21H10.6667C10.1144 21 9.66669 20.5523 9.66669 20Z" fill="#6D6E6F"/>
</svg>
