<svg width="24" height="24" viewBox="0 0 24 24" fill="none" xmlns="http://www.w3.org/2000/svg">
<path fill-rule="evenodd" clip-rule="evenodd" d="M11.9988 3.5C7.29515 3.5 3.5 7.27328 3.5 12.013C3.5 16.7476 7.29005 20.5 11.9988 20.5C16.7081 20.5 20.5 16.7472 20.5 12.013C20.5 7.27374 16.703 3.5 11.9988 3.5ZM11.9988 14.8604C10.4142 14.8604 9.14656 13.5692 9.14656 11.9988C9.14656 10.4284 10.4142 9.13728 11.9988 9.13728C13.5835 9.13728 14.8511 10.4284 14.8511 11.9988C14.8511 13.5693 13.5835 14.8604 11.9988 14.8604ZM2 12.013C2 6.44392 6.46766 2 11.9988 2C17.53 2 22 6.44392 22 12.013C22 17.5821 17.53 22 11.9988 22C6.46766 22 2 17.5821 2 12.013ZM10.6466 11.9988C10.6466 12.7505 11.2523 13.3604 11.9988 13.3604C12.7454 13.3604 13.3511 12.7505 13.3511 11.9988C13.3511 11.2471 12.7454 10.6373 11.9988 10.6373C11.2523 10.6373 10.6466 11.2471 10.6466 11.9988Z" fill="#6D6E6F"/>
</svg>
