<svg width="32" height="32" viewBox="0 0 32 32" fill="none" xmlns="http://www.w3.org/2000/svg">
<path fill-rule="evenodd" clip-rule="evenodd" d="M16 3.66666C9.18851 3.66666 3.66669 9.18848 3.66669 16C3.66669 22.8115 9.18851 28.3333 16 28.3333C22.8115 28.3333 28.3334 22.8115 28.3334 16C28.3334 9.18848 22.8115 3.66666 16 3.66666ZM1.66669 16C1.66669 8.08391 8.08394 1.66666 16 1.66666C23.9161 1.66666 30.3334 8.08391 30.3334 16C30.3334 23.9161 23.9161 30.3333 16 30.3333C8.08394 30.3333 1.66669 23.9161 1.66669 16ZM16.4005 10.3706C15.7022 10.2508 14.9841 10.382 14.3733 10.741C13.7625 11.0999 13.2984 11.6635 13.0633 12.3318C12.8801 12.8528 12.3091 13.1266 11.7882 12.9433C11.2672 12.7601 10.9934 12.1891 11.1767 11.6682C11.5685 10.5543 12.3419 9.615 13.3599 9.01671C14.3779 8.41842 15.5748 8.19972 16.7386 8.39934C17.9024 8.59896 18.958 9.20403 19.7185 10.1074C20.4788 11.0106 20.8949 12.1536 20.8933 13.3342C20.8929 15.1979 19.5083 16.4586 18.448 17.1654C17.8874 17.5391 17.3339 17.8152 16.9245 17.9971C16.7183 18.0888 16.5452 18.1581 16.4212 18.2053C16.3591 18.229 16.3091 18.2472 16.2733 18.2599L16.2302 18.275L16.217 18.2795L16.2125 18.281L16.2109 18.2816L16.2102 18.2818C16.2099 18.2819 16.2096 18.282 15.8933 17.3333L16.2096 18.282C15.6856 18.4567 15.1193 18.1735 14.9446 17.6496C14.7702 17.1261 15.0526 16.5605 15.5755 16.3852L15.5755 16.3852L15.5758 16.3851L15.5766 16.3848L15.5794 16.3838L15.6032 16.3755C15.6259 16.3674 15.6619 16.3544 15.7092 16.3363C15.804 16.3002 15.9433 16.2446 16.1122 16.1695C16.4528 16.0181 16.8993 15.7942 17.3386 15.5013C18.2782 14.8749 18.8933 14.1358 18.8933 13.3333V13.3318C18.8944 12.6234 18.6447 11.9374 18.1884 11.3954C17.7321 10.8534 17.0988 10.4903 16.4005 10.3706ZM20.8933 13.3342V13.3333H19.8933L20.8933 13.3348L20.8933 13.3342ZM16 21.6667C15.4477 21.6667 15 22.1144 15 22.6667C15 23.2189 15.4477 23.6667 16 23.6667H16.0133C16.5656 23.6667 17.0133 23.2189 17.0133 22.6667C17.0133 22.1144 16.5656 21.6667 16.0133 21.6667H16Z" fill="#6D6E6F"/>
</svg>
