<svg width="32" height="32" viewBox="0 0 32 32" fill="none" xmlns="http://www.w3.org/2000/svg">
<path fill-rule="evenodd" clip-rule="evenodd" d="M3.66669 16C3.66669 9.18848 9.18851 3.66666 16 3.66666C22.8115 3.66666 28.3334 9.18848 28.3334 16C28.3334 22.8115 22.8115 28.3333 16 28.3333C9.18851 28.3333 3.66669 22.8115 3.66669 16ZM16 1.66666C8.08394 1.66666 1.66669 8.08391 1.66669 16C1.66669 23.9161 8.08394 30.3333 16 30.3333C23.9161 30.3333 30.3334 23.9161 30.3334 16C30.3334 8.08391 23.9161 1.66666 16 1.66666ZM11.4645 18.0637L11.4652 18.0646L11.4656 18.0652L11.4658 18.0655L11.474 18.0759C11.4838 18.0883 11.5009 18.1095 11.5251 18.1384C11.5736 18.1961 11.6501 18.2837 11.7533 18.3914C11.9605 18.6076 12.2703 18.8995 12.6715 19.1913C13.4778 19.7776 14.6089 20.3333 16 20.3333C17.3912 20.3333 18.5223 19.7776 19.3285 19.1913C19.7297 18.8995 20.0396 18.6076 20.2468 18.3914C20.35 18.2837 20.4265 18.1961 20.4749 18.1384C20.4991 18.1095 20.5162 18.0883 20.526 18.0759L20.5338 18.0661L20.5342 18.0655L20.5348 18.0647C20.8666 17.6246 21.4922 17.5358 21.9334 17.8667C22.3752 18.198 22.4647 18.8248 22.1334 19.2667L21.3334 18.6667C22.1334 19.2667 22.1331 19.267 22.1329 19.2673L22.1323 19.268L22.1311 19.2697L22.1281 19.2736L22.1198 19.2845C22.1132 19.293 22.1047 19.304 22.0941 19.3173C22.073 19.344 22.0439 19.38 22.0069 19.4241C21.9329 19.5122 21.8272 19.6329 21.6908 19.7752C21.4188 20.059 21.0203 20.4338 20.5049 20.8087C19.4778 21.5557 17.9422 22.3333 16 22.3333C14.0578 22.3333 12.5223 21.5557 11.4952 20.8087C10.9797 20.4338 10.5813 20.059 10.3093 19.7752C10.1729 19.6329 10.0671 19.5122 9.99316 19.4241C9.95615 19.38 9.92702 19.344 9.90591 19.3173L9.89544 19.304L9.88026 19.2845L9.87195 19.2736L9.86894 19.2697L9.86772 19.268L9.86718 19.2673C9.86693 19.267 9.86668 19.2667 10.6667 18.6667L9.86668 19.2667C9.53531 18.8248 9.62486 18.198 10.0667 17.8667C10.5075 17.536 11.1325 17.6244 11.4645 18.0637ZM11 12C11 11.4477 11.4477 11 12 11H12.0133C12.5656 11 13.0133 11.4477 13.0133 12C13.0133 12.5523 12.5656 13 12.0133 13H12C11.4477 13 11 12.5523 11 12ZM20 11C19.4477 11 19 11.4477 19 12C19 12.5523 19.4477 13 20 13H20.0133C20.5656 13 21.0133 12.5523 21.0133 12C21.0133 11.4477 20.5656 11 20.0133 11H20Z" fill="#6D6E6F"/>
</svg>
